<svg xmlns="http://www.w3.org/2000/svg"
     viewBox="0 0 24 24" width="24" height="24"
     fill="none" stroke="currentColor" stroke-width="1.1"
     stroke-linecap="round" stroke-linejoin="round">
  <title>FuzzyOS</title>
  <path d="M 14.0,2.2 L 13.5,1.7 13.0,1.3 12.4,1.1 11.8,1.0 11.3,1.2 10.7,1.5 10.2,2.0 9.8,2.5 9.4,3.0 9.0,3.4 8.6,3.7 8.2,3.8 7.6,3.8 7.0,3.7 6.4,3.7 5.7,3.7 5.0,3.8 4.5,4.0 4.1,4.4 3.8,4.9 3.7,5.6 3.7,6.2 3.7,6.9 3.8,7.5 3.8,8.1 3.7,8.5 3.4,9.0 3.1,9.3 2.6,9.7 2.1,10.2 1.6,10.6 1.2,11.2 1.0,11.7 1.0,12.3 1.2,12.9 1.6,13.4 2.1,13.9 2.6,14.3 3.1,14.7 3.5,15.1 3.7,15.5 3.8,16.0 3.8,16.5 3.7,17.1 3.7,17.8 3.7,18.5 3.8,19.1 4.1,19.6 4.5,20.0 5.1,20.2 5.7,20.3 6.4,20.3 7.1,20.2 7.7,20.2 8.2,20.2 8.7,20.4 9.1,20.6 9.4,21.1 9.8,21.5 10.3,22.1 10.8,22.5 11.3,22.8 11.9,23.0 12.5,22.9 13.0,22.7 13.5,22.3 14.0,21.8 14.4,21.3 14.8,20.8 15.2,20.5 15.6,20.3 16.1,20.2 16.7,20.2 17.3,20.3 18.0,20.3 18.6,20.3 19.2,20.1 19.7,19.8 20.1,19.3 20.3,18.8 20.3,18.1 20.3,17.4 20.2,16.8 20.2,16.2 20.2,15.7 20.4,15.2 20.7,14.8 21.2,14.5 21.7,14.1 22.2,13.6 22.6,13.1 22.9,12.6 23.0,12.0 22.9,11.4 22.6,10.9 22.2,10.4 21.6,9.9 21.1,9.5 20.7,9.1 20.4,8.7 20.2,8.3 20.2,7.8 20.2,7.2 20.3,6.5 20.3,5.9 20.3,5.2 20.1,4.6 19.7,4.2 19.2,3.8 18.6,3.7 17.9,3.7 17.3,3.7 16.6,3.8 16.1,3.8 15.6,3.7 15.1,3.5 14.8,3.2 14.4,2.7 14.0,2.2 Z"/>
  <path d="M 13.2,6.1 L 12.9,5.7 12.6,5.3 12.3,5.1 11.9,5.0 11.5,5.2 11.2,5.5 10.9,5.9 10.7,6.4 10.5,6.8 10.3,7.2 10.1,7.4 9.9,7.4 9.5,7.3 9.1,7.2 8.6,7.0 8.1,6.9 7.6,6.8 7.2,6.9 7.0,7.2 6.8,7.5 6.8,8.0 7.0,8.5 7.1,9.0 7.3,9.4 7.4,9.8 7.4,10.1 7.2,10.3 6.9,10.5 6.5,10.7 6.0,10.9 5.6,11.2 5.2,11.5 5.0,11.8 5.0,12.2 5.2,12.5 5.6,12.9 6.0,13.1 6.5,13.3 6.9,13.5 7.2,13.7 7.4,13.9 7.4,14.2 7.3,14.6 7.1,15.0 6.9,15.5 6.8,16.0 6.8,16.5 7.0,16.9 7.3,17.1 7.7,17.2 8.1,17.1 8.6,17.0 9.1,16.8 9.5,16.7 9.9,16.6 10.1,16.6 10.3,16.9 10.5,17.2 10.7,17.6 10.9,18.1 11.2,18.5 11.6,18.9 11.9,19.0 12.3,18.9 12.6,18.7 12.9,18.3 13.2,17.9 13.4,17.4 13.6,17.0 13.8,16.7 14.0,16.6 14.3,16.6 14.7,16.7 15.1,16.9 15.6,17.1 16.1,17.2 16.6,17.1 16.9,17.0 17.1,16.7 17.2,16.2 17.1,15.7 17.0,15.2 16.8,14.8 16.6,14.4 16.6,14.1 16.7,13.8 16.9,13.6 17.3,13.4 17.8,13.2 18.2,13.0 18.6,12.7 18.9,12.4 19.0,12.0 18.9,11.6 18.6,11.3 18.2,11.0 17.7,10.8 17.3,10.6 16.9,10.4 16.7,10.2 16.6,9.9 16.6,9.6 16.8,9.2 17.0,8.7 17.1,8.2 17.2,7.7 17.1,7.3 16.9,7.0 16.6,6.8 16.1,6.8 15.6,6.9 15.1,7.1 14.7,7.3 14.3,7.4 14.0,7.4 13.8,7.3 13.6,7.0 13.4,6.6 13.2,6.1 Z"/>
</svg>
